<svg xmlns="http://www.w3.org/2000/svg" xmlns:xlink="http://www.w3.org/1999/xlink" width="70" height="70" viewBox="0 0 70 70">
  <defs>
    <radialGradient id="radial-gradient" cx="0.903" cy="-0.15" r="1.519" gradientTransform="matrix(-0.484, 0.875, -0.918, -0.508, 1.203, -1.016)" gradientUnits="objectBoundingBox">
      <stop offset="0" stop-color="#2dceef"/>
      <stop offset="0.404" stop-color="#2d9bef"/>
      <stop offset="1" stop-color="#b942f2"/>
      <stop offset="1" stop-color="#9b2def"/>
    </radialGradient>
  </defs>
  <g id="finder" transform="translate(-120.229 -309.229)">
    <circle id="Ellipse_17570" data-name="Ellipse 17570" cx="35" cy="35" r="35" transform="translate(120.229 309.229)" fill="url(#radial-gradient)"/>
    <path id="Small" d="M14.4,35.027a1.337,1.337,0,0,1-.341-.188Q7.323,30.784.577,26.774a.875.875,0,0,1-.279-.2.956.956,0,0,1-.166-.221l-.006-.007A1,1,0,0,1,0,25.763C.015,21.417.015,9.47.015,9.47l.053-.049a1.03,1.03,0,0,1,.124-.572A.964.964,0,0,1,.62,8.44c.36-.212.787-.466,1.263-.749l.123-.117v.044C6.28,5.077,14.348.269,14.781.012L14.8,0l.644.4c.488.276.993.554,1.343.763,4.061,2.4,8.1,4.818,12.175,7.186a1.2,1.2,0,0,1,.526.526,1.185,1.185,0,0,1,.114.316l.013-.008v.067a1.362,1.362,0,0,1,.007.368q0,.821-.005,1.64c.027,4.806.014,9.6.071,14.408a1.277,1.277,0,0,1-.177.736,1.2,1.2,0,0,1-.558.491c-4.454,2.645-8.9,5.281-13.327,7.971a1.306,1.306,0,0,1-.487.218.874.874,0,0,1-.3.061h-.01A.868.868,0,0,1,14.4,35.027ZM14.327,32.5a1.079,1.079,0,0,0,.626.2,1.051,1.051,0,0,0,.624-.2c3.947-2.327,7.51-4.543,11.456-6.885a1.111,1.111,0,0,0,.476-.455,1.151,1.151,0,0,0,.146-.655q-.018-3.18-.018-6.355L8.99,29.406C11.333,30.782,13.448,32.016,14.327,32.5ZM3.6,9.024c-1.284.769-1.586.88-1.579,2.764.023,4.418.053,11.008.114,12.849a1.15,1.15,0,0,0,.044.424,3.286,3.286,0,0,0,1.329,1.118c1.421.839,3.109,1.836,4.741,2.795V6.257C6.561,7.26,4.908,8.243,3.6,9.024Zm24.032,8.114q0-1.951.008-3.9c0-.334-.007-.559-.007-.559l-.054-2.282.038-.024a1.284,1.284,0,0,0-.718-.876c-2.5-1.446-4.964-2.944-7.451-4.416-.737-.427-2.393-1.39-2.393-1.39l-2.271-1.3c-1.506.891-3.684,2.178-5.868,3.472Z" transform="translate(140.384 326.107)" fill="#fff" opacity="0.84"/>
  </g>
</svg>
